<svg width="24" height="24" viewBox="0 0 24 24" fill="none" xmlns="http://www.w3.org/2000/svg">
<path d="M11.5 6H6.44444C6.06135 6 5.69395 6.15218 5.42307 6.42307C5.15218 6.69395 5 7.06135 5 7.44444V17.5556C5 17.9386 5.15218 18.306 5.42307 18.5769C5.69395 18.8478 6.06135 19 6.44444 19H16.5556C16.9386 19 17.306 18.8478 17.5769 18.5769C17.8478 18.306 18 17.9386 18 17.5556V12.5" stroke="#292929" stroke-linecap="round" stroke-linejoin="round"/>
<path d="M17.1791 4.48399C17.489 4.1741 17.9093 4 18.3476 4C18.7858 4 19.2061 4.1741 19.516 4.48399C19.8259 4.79388 20 5.21418 20 5.65243C20 6.09068 19.8259 6.51099 19.516 6.82088L12.1159 14.221L9 15L9.77896 11.8841L17.1791 4.48399Z" stroke="#292929" stroke-linecap="round" stroke-linejoin="round"/>
</svg>
